<svg width="31" height="28" viewBox="0 0 31 28" fill="none" xmlns="http://www.w3.org/2000/svg">
<path d="M29.633 15.3552L30.9634 4.52823L21.4204 0.789917L9.97347 6.43392L0 2.08598L1.34674 13.6366L0.0559875 25.0107L10.6529 27.0626L21.4613 24.9377L31 27.2099L29.633 15.3552ZM21.3851 1.93679L29.8379 5.22495L29.256 9.95922L20.8309 7.75929L21.3851 1.93679ZM20.2669 2.53779L19.821 7.49472L19.8136 7.49296L13.9803 8.26963L13.9454 8.40247C13.9381 8.43113 13.2612 11.0122 12.548 12.1861C12.0864 11.9059 11.5673 11.7182 11.0126 11.6487L10.5397 7.33263L20.2669 2.53779ZM19.3751 13.5944L14.3052 14.3835C14.0322 13.5862 13.5312 12.9014 12.8807 12.4115C13.5444 11.3179 14.1434 9.20077 14.2943 8.64191L19.7826 7.91067L19.3751 13.5944ZM9.50854 7.38525L9.97703 11.6591C8.436 11.8782 7.17208 13.0014 6.7088 14.4938L2.38569 13.803L1.97055 9.66392C3.40347 9.56602 4.47833 9.08465 5.16716 8.22574C5.78813 7.45264 5.96672 6.53801 6.00088 5.85626L9.50854 7.38525ZM1.24808 3.78442L5.60659 5.68431C5.59411 6.31163 5.45669 7.22183 4.86132 7.96362C4.24019 8.73672 3.25228 9.16913 1.92014 9.2559L1.24808 3.78442ZM1.19184 24.1493L2.26406 14.8596L6.52768 15.5416C6.52448 15.6121 6.51762 15.682 6.51762 15.7541C6.51762 16.7216 6.84307 17.6107 7.38488 18.3166L5.17056 20.1521L4.47286 24.784L1.19184 24.1493ZM9.54497 25.7664L4.86364 24.86L5.53982 20.3722L7.64707 18.6261C8.29353 19.3159 9.16828 19.7762 10.1457 19.8713L9.54497 25.7664ZM7.31341 15.7541C7.31341 13.9245 8.7549 12.4366 10.5263 12.4366C12.2987 12.4366 13.7402 13.9246 13.7402 15.7541C13.7402 17.5827 12.2987 19.0707 10.5263 19.0707C8.75485 19.071 7.31341 17.5827 7.31341 15.7541ZM10.6515 25.9805L10.5612 25.9629L11.1866 19.831C13.0833 19.5042 14.5355 17.8028 14.5355 15.7531C14.5355 15.6423 14.5278 15.534 14.5194 15.4251L19.4751 14.6537L19.8887 19.0168C17.7147 19.1222 16.0896 19.8121 15.0666 21.0865C13.8739 22.5739 13.8176 24.4283 13.8794 25.3451L10.6515 25.9805ZM14.2764 25.2677C14.2283 24.3975 14.298 22.6898 15.3736 21.3492C16.325 20.1635 17.8599 19.5237 19.9271 19.4268L20.3675 24.0691L14.2764 25.2677ZM20.794 8.1722L29.2065 10.3681L28.7021 14.4705L20.3956 13.4355L20.794 8.1722ZM27.558 18.0144L23.7305 17.5446L24.4315 24.5534L21.3649 23.873L20.4953 14.4964L20.5847 14.4819L28.6145 15.5341L29.8024 25.8333L24.8333 24.6501L24.1773 18.0132L27.5887 18.4219L27.558 18.0144Z" fill="#0F1D4E"/>
</svg>
