<svg width="31" height="28" fill="none" xmlns="http://www.w3.org/2000/svg"><path d="M29.633 15.355l1.33-10.827L21.42.79 9.973 6.434 0 2.086l1.347 11.55L.056 25.012l10.597 2.052 10.808-2.125L31 27.21l-1.367-11.855zM21.385 1.937l8.453 3.288-.582 4.734-8.425-2.2.554-5.822zm-1.118.6l-.446 4.958-.007-.002-5.834.777-.035.132c-.007.03-.684 2.61-1.397 3.784a3.884 3.884 0 00-1.535-.537l-.473-4.316 9.727-4.795zm-.892 11.057l-5.07.79a4.15 4.15 0 00-1.424-1.973c.663-1.093 1.262-3.21 1.413-3.77l5.489-.73-.408 5.683zM9.51 7.385l.468 4.274c-1.541.22-2.805 1.342-3.268 2.835l-4.323-.691-.415-4.14c1.432-.097 2.507-.578 3.196-1.437.621-.773.8-1.688.834-2.37l3.508 1.53zm-8.26-3.6l4.358 1.9c-.013.627-.15 1.537-.746 2.279-.62.773-1.609 1.205-2.94 1.292l-.673-5.472zm-.057 20.364l1.072-9.29 4.264.683c-.004.07-.01.14-.01.212 0 .968.325 1.857.867 2.563L5.17 20.152l-.698 4.632-3.281-.635zm8.353 1.617l-4.681-.906.676-4.488 2.107-1.746a3.948 3.948 0 002.499 1.245l-.601 5.895zM7.313 15.754c0-1.83 1.442-3.317 3.213-3.317 1.773 0 3.214 1.488 3.214 3.317 0 1.829-1.441 3.317-3.214 3.317-1.771 0-3.213-1.488-3.213-3.317zm3.339 10.226l-.09-.017.625-6.132c1.896-.327 3.349-2.028 3.349-4.078 0-.11-.008-.219-.017-.328l4.956-.771.414 4.363c-2.174.105-3.8.795-4.822 2.07-1.193 1.487-1.25 3.341-1.188 4.258l-3.227.636zm3.624-.712c-.048-.87.022-2.578 1.098-3.919.951-1.186 2.486-1.825 4.553-1.922l.44 4.642-6.09 1.199zm6.518-17.096l8.412 2.196-.504 4.102-8.306-1.035.398-5.263zm6.764 9.842l-3.828-.47.701 7.01-3.066-.681-.87-9.377.09-.014 8.03 1.052 1.187 10.3-4.969-1.184-.656-6.637 3.412.409-.031-.408z" fill="#0F1D4E"/></svg>